<svg xmlns="http://www.w3.org/2000/svg" xmlns:xlink="http://www.w3.org/1999/xlink" width="500" zoomAndPan="magnify" viewBox="0 0 375 374.999991" height="500" preserveAspectRatio="xMidYMid meet" version="1.0"><defs><g/><clipPath id="d603000d7b"><path d="M 81 164.21875 L 122.953125 164.21875 L 122.953125 210.71875 L 81 210.71875 Z M 81 164.21875 " clip-rule="nonzero"/></clipPath><clipPath id="2f00f533cc"><path d="M 26.011719 112.5 L 103.261719 112.5 L 103.261719 262.5 L 26.011719 262.5 Z M 26.011719 112.5 " clip-rule="nonzero"/></clipPath><clipPath id="32a41aa1c7"><path d="M 99.964844 112.5 L 171.214844 112.5 L 171.214844 262.5 L 99.964844 262.5 Z M 99.964844 112.5 " clip-rule="nonzero"/></clipPath></defs><g clip-path="url(#d603000d7b)"><path fill="#000000" d="M 115.765625 184.082031 C 115.667969 183.046875 115.496094 182.089844 115.222656 181.21875 C 115.320312 181.175781 115.40625 181.113281 115.480469 181.03125 C 116.003906 180.433594 116.484375 179.898438 116.929688 179.40625 C 119.90625 176.113281 121.394531 174.457031 121.394531 168.90625 L 121.394531 167.339844 C 121.394531 166.90625 121.046875 166.558594 120.621094 166.558594 C 120.191406 166.558594 119.84375 166.90625 119.84375 167.339844 L 119.84375 168.90625 C 119.84375 173.855469 118.738281 175.078125 115.78125 178.355469 C 115.414062 178.761719 115.019531 179.203125 114.597656 179.675781 C 114.253906 178.980469 113.855469 178.332031 113.363281 177.757812 C 112.300781 176.519531 110.910156 175.59375 109.171875 174.96875 C 109.125 173.832031 108.664062 172.554688 107.890625 171.382812 C 109.6875 170.691406 113.636719 168.902344 113.636719 166.609375 L 113.636719 165.777344 C 113.636719 165.34375 113.285156 164.996094 112.859375 164.996094 C 112.429688 164.996094 112.082031 165.34375 112.082031 165.777344 L 112.082031 166.609375 C 112.082031 167.683594 109.105469 169.292969 106.867188 170.097656 C 105.519531 168.671875 103.699219 167.632812 101.695312 167.632812 C 99.765625 167.632812 98.011719 168.59375 96.6875 169.933594 C 94.246094 168.964844 91.902344 167.515625 91.902344 166.609375 L 91.902344 165.777344 C 91.902344 165.34375 91.554688 164.996094 91.128906 164.996094 C 90.699219 164.996094 90.351562 165.34375 90.351562 165.777344 L 90.351562 166.609375 C 90.351562 168.664062 93.617188 170.347656 95.632812 171.195312 C 94.78125 172.421875 94.261719 173.78125 94.214844 174.980469 C 92.484375 175.605469 91.082031 176.523438 90.023438 177.761719 C 89.589844 178.265625 89.230469 178.839844 88.914062 179.445312 L 87.953125 178.363281 C 84.871094 174.894531 84.140625 174.070312 84.140625 168.90625 L 84.140625 167.339844 C 84.140625 166.90625 83.792969 166.558594 83.363281 166.558594 C 82.933594 166.558594 82.585938 166.90625 82.585938 167.339844 L 82.585938 168.90625 C 82.585938 174.667969 83.648438 175.859375 86.792969 179.402344 L 87.859375 180.609375 C 87.980469 180.746094 88.140625 180.8125 88.304688 180.84375 C 87.945312 181.871094 87.703125 183.003906 87.601562 184.269531 C 83.027344 185.820312 81.035156 189.222656 81.035156 195.578125 L 81.035156 197.039062 C 81.035156 197.46875 81.382812 197.820312 81.8125 197.820312 C 82.242188 197.820312 82.589844 197.46875 82.589844 197.039062 L 82.589844 195.578125 C 82.589844 190.222656 84.058594 187.359375 87.542969 185.957031 C 87.550781 187.179688 87.65625 188.503906 87.871094 189.929688 C 87.914062 190.226562 87.96875 190.515625 88.015625 190.808594 C 88.007812 190.832031 87.988281 190.84375 87.980469 190.867188 L 87.292969 192.59375 C 84.785156 198.847656 84.027344 200.734375 86.40625 208.089844 C 86.511719 208.417969 86.816406 208.628906 87.144531 208.628906 C 87.222656 208.628906 87.304688 208.617188 87.382812 208.59375 C 87.792969 208.457031 88.015625 208.019531 87.882812 207.609375 C 85.734375 200.953125 86.246094 199.390625 88.5625 193.601562 C 90.824219 203.449219 96.117188 210.726562 101.40625 210.726562 C 101.519531 210.726562 101.628906 210.71875 101.648438 210.710938 C 101.761719 210.71875 101.871094 210.726562 101.984375 210.726562 C 107.316406 210.726562 112.65625 203.320312 114.882812 193.347656 C 117.199219 199.230469 117.589844 200.851562 115.40625 207.609375 C 115.273438 208.019531 115.496094 208.457031 115.902344 208.59375 C 115.984375 208.621094 116.0625 208.628906 116.140625 208.628906 C 116.46875 208.628906 116.773438 208.421875 116.882812 208.089844 C 119.359375 200.421875 118.632812 198.585938 115.925781 191.757812 L 115.574219 190.871094 C 115.535156 190.769531 115.476562 190.683594 115.40625 190.609375 C 115.441406 190.382812 115.488281 190.164062 115.519531 189.9375 C 115.746094 188.433594 115.84375 187.050781 115.84375 185.773438 C 119.710938 187.140625 121.398438 190.101562 121.398438 195.574219 L 121.398438 197.035156 C 121.398438 197.46875 121.746094 197.816406 122.171875 197.816406 C 122.601562 197.816406 122.949219 197.46875 122.949219 197.035156 L 122.949219 195.574219 C 122.945312 189.121094 120.726562 185.578125 115.765625 184.082031 Z M 115.765625 184.082031 " fill-opacity="1" fill-rule="nonzero"/></g><g clip-path="url(#2f00f533cc)"><path fill="#000000" d="M 101.53125 256.257812 L 101.539062 254.417969 L 104.253906 254.417969 L 104.253906 254.082031 L 101.539062 254.082031 L 101.566406 246.164062 L 104.253906 246.164062 L 104.253906 245.832031 L 101.566406 245.832031 L 101.550781 237.914062 L 104.253906 237.914062 L 104.253906 237.582031 L 101.550781 237.582031 L 101.539062 229.664062 L 104.253906 229.664062 L 104.253906 229.332031 L 101.539062 229.332031 L 101.535156 225.679688 C 122.277344 225.398438 139.085938 208.578125 139.277344 187.855469 L 142.769531 187.859375 L 142.769531 190.574219 L 143.101562 190.574219 L 143.101562 187.863281 L 151.039062 187.875 L 151.039062 190.574219 L 151.371094 190.574219 L 151.371094 187.875 L 159.308594 187.890625 L 159.308594 190.574219 L 159.640625 190.574219 L 159.640625 187.890625 L 167.574219 187.859375 L 167.574219 190.574219 L 167.910156 190.574219 L 167.910156 187.859375 L 169.925781 187.855469 C 169.734375 225.4375 139.179688 255.976562 101.53125 256.257812 Z M 32.09375 187.855469 L 34.113281 187.859375 L 34.113281 190.574219 L 34.445312 190.574219 L 34.445312 187.859375 L 42.382812 187.890625 L 42.382812 190.574219 L 42.714844 190.574219 L 42.714844 187.890625 L 50.652344 187.875 L 50.652344 190.574219 L 50.984375 190.574219 L 50.984375 187.875 L 58.917969 187.863281 L 58.917969 190.574219 L 59.253906 190.574219 L 59.253906 187.859375 L 62.746094 187.855469 C 62.9375 208.6875 79.925781 225.585938 100.820312 225.6875 L 100.816406 229.332031 L 98.101562 229.332031 L 98.101562 229.664062 L 100.8125 229.664062 L 100.800781 237.582031 L 98.101562 237.582031 L 98.101562 237.914062 L 100.800781 237.914062 L 100.789062 245.832031 L 98.101562 245.832031 L 98.101562 246.164062 L 100.789062 246.164062 L 100.816406 254.082031 L 98.101562 254.082031 L 98.101562 254.417969 L 100.816406 254.417969 L 100.824219 256.261719 C 63.023438 256.164062 32.289062 225.546875 32.09375 187.855469 Z M 100.824219 118.738281 L 100.816406 120.585938 L 98.101562 120.585938 L 98.101562 120.917969 L 100.816406 120.917969 L 100.789062 128.832031 L 98.101562 128.832031 L 98.101562 129.167969 L 100.789062 129.167969 L 100.800781 137.085938 L 98.101562 137.085938 L 98.101562 137.417969 L 100.800781 137.417969 L 100.8125 145.335938 L 98.101562 145.335938 L 98.101562 145.667969 L 100.816406 145.667969 L 100.820312 149.3125 C 79.925781 149.414062 62.9375 166.3125 62.746094 187.144531 L 59.253906 187.140625 L 59.253906 184.429688 L 58.917969 184.429688 L 58.917969 187.136719 L 50.984375 187.125 L 50.984375 184.429688 L 50.652344 184.429688 L 50.652344 187.121094 L 42.714844 187.109375 L 42.714844 184.429688 L 42.382812 184.429688 L 42.382812 187.109375 L 34.445312 187.140625 L 34.445312 184.429688 L 34.113281 184.429688 L 34.113281 187.140625 L 32.09375 187.144531 C 32.289062 149.453125 63.023438 118.835938 100.824219 118.738281 Z M 134.5 184.429688 L 134.5 187.152344 L 126.566406 187.164062 L 126.566406 184.429688 L 126.230469 184.429688 L 126.230469 187.167969 C 123.585938 187.183594 120.941406 187.203125 118.292969 187.246094 L 118.292969 184.429688 L 117.960938 184.429688 L 117.960938 187.253906 C 115.261719 187.300781 112.558594 187.375 109.859375 187.5 C 112.558594 187.625 115.261719 187.699219 117.960938 187.746094 L 117.960938 190.574219 L 118.292969 190.574219 L 118.292969 187.753906 C 120.941406 187.796875 123.585938 187.816406 126.230469 187.832031 L 126.230469 190.574219 L 126.566406 190.574219 L 126.566406 187.835938 L 134.5 187.847656 L 134.5 190.574219 L 134.832031 190.574219 L 134.832031 187.847656 L 138.613281 187.855469 C 138.421875 208.210938 121.914062 224.734375 101.53125 225.015625 L 101.527344 221.414062 L 104.253906 221.414062 L 104.253906 221.082031 L 101.527344 221.082031 L 101.511719 213.160156 L 104.253906 213.160156 L 104.253906 212.828125 L 101.511719 212.828125 C 101.492188 210.191406 101.476562 207.550781 101.429688 204.910156 L 104.253906 204.910156 L 104.253906 204.578125 L 101.421875 204.578125 C 101.375 201.882812 101.300781 199.1875 101.175781 196.496094 C 101.050781 199.1875 100.976562 201.882812 100.929688 204.578125 L 98.101562 204.578125 L 98.101562 204.910156 L 100.925781 204.910156 C 100.878906 207.550781 100.859375 210.191406 100.84375 212.828125 L 98.101562 212.828125 L 98.101562 213.160156 L 100.84375 213.160156 L 100.828125 221.082031 L 98.101562 221.082031 L 98.101562 221.414062 L 100.828125 221.414062 L 100.824219 225.019531 C 80.289062 224.921875 63.601562 208.320312 63.410156 187.855469 L 67.1875 187.847656 L 67.1875 190.574219 L 67.519531 190.574219 L 67.519531 187.847656 L 75.457031 187.835938 L 75.457031 190.574219 L 75.789062 190.574219 L 75.789062 187.832031 C 78.4375 187.816406 81.082031 187.796875 83.726562 187.753906 L 83.726562 190.574219 L 84.0625 190.574219 L 84.0625 187.746094 C 86.761719 187.699219 89.464844 187.625 92.164062 187.5 C 89.464844 187.375 86.761719 187.300781 84.0625 187.253906 L 84.0625 184.429688 L 83.726562 184.429688 L 83.726562 187.246094 C 81.082031 187.203125 78.4375 187.183594 75.789062 187.167969 L 75.789062 184.429688 L 75.457031 184.429688 L 75.457031 187.164062 L 67.519531 187.152344 L 67.519531 184.429688 L 67.1875 184.429688 L 67.1875 187.152344 L 63.410156 187.144531 C 63.601562 166.679688 80.289062 150.078125 100.824219 149.980469 L 100.828125 153.589844 L 98.101562 153.589844 L 98.101562 153.921875 L 100.828125 153.921875 L 100.84375 161.839844 L 98.101562 161.839844 L 98.101562 162.171875 L 100.84375 162.171875 C 100.859375 164.808594 100.878906 167.449219 100.925781 170.089844 L 98.101562 170.089844 L 98.101562 170.421875 L 100.929688 170.421875 C 100.976562 173.117188 101.050781 175.8125 101.175781 178.503906 C 101.300781 175.8125 101.375 173.117188 101.421875 170.421875 L 104.253906 170.421875 L 104.253906 170.089844 L 101.429688 170.089844 C 101.476562 167.449219 101.492188 164.808594 101.511719 162.171875 L 104.253906 162.171875 L 104.253906 161.839844 L 101.511719 161.839844 L 101.527344 153.921875 L 104.253906 153.921875 L 104.253906 153.589844 L 101.527344 153.589844 L 101.53125 149.984375 C 121.914062 150.265625 138.421875 166.789062 138.613281 187.144531 L 134.832031 187.152344 L 134.832031 184.429688 Z M 169.925781 187.144531 L 167.910156 187.140625 L 167.910156 184.429688 L 167.574219 184.429688 L 167.574219 187.140625 L 159.640625 187.109375 L 159.640625 184.429688 L 159.308594 184.429688 L 159.308594 187.109375 L 151.371094 187.121094 L 151.371094 184.429688 L 151.039062 184.429688 L 151.039062 187.125 L 143.101562 187.136719 L 143.101562 184.429688 L 142.769531 184.429688 L 142.769531 187.140625 L 139.277344 187.144531 C 139.085938 166.421875 122.277344 149.597656 101.535156 149.320312 L 101.539062 145.667969 L 104.253906 145.667969 L 104.253906 145.335938 L 101.539062 145.335938 L 101.550781 137.417969 L 104.253906 137.417969 L 104.253906 137.085938 L 101.550781 137.085938 L 101.566406 129.167969 L 104.253906 129.167969 L 104.253906 128.832031 L 101.566406 128.832031 L 101.539062 120.917969 L 104.253906 120.917969 L 104.253906 120.585938 L 101.539062 120.585938 L 101.53125 118.742188 C 139.179688 119.023438 169.734375 149.5625 169.925781 187.144531 Z M 176.011719 187.167969 L 171.921875 187.152344 C 171.734375 148.464844 140.277344 117.027344 101.523438 116.75 L 101.511719 112.5 L 100.84375 112.5 L 100.832031 116.738281 C 61.925781 116.839844 30.289062 148.355469 30.101562 187.152344 L 26.011719 187.167969 L 26.011719 187.832031 L 30.101562 187.847656 C 30.289062 226.644531 61.925781 258.160156 100.832031 258.261719 L 100.84375 262.5 L 101.511719 262.5 L 101.523438 258.25 C 140.277344 257.972656 171.734375 226.535156 171.921875 187.847656 L 176.011719 187.832031 L 176.011719 187.167969 " fill-opacity="1" fill-rule="nonzero"/></g><g fill="#004aad" fill-opacity="1"><g transform="translate(121.868121, 202.27966)"><g><path d="M 15.28125 -33.296875 C 15.53125 -33.140625 15.675781 -32.972656 15.71875 -32.796875 C 15.769531 -32.628906 15.78125 -32.445312 15.75 -32.25 C 15.625 -31.363281 15.578125 -30.484375 15.609375 -29.609375 C 15.640625 -28.742188 15.640625 -27.890625 15.609375 -27.046875 C 15.578125 -25.140625 15.5625 -23.242188 15.5625 -21.359375 C 15.5625 -19.484375 15.5625 -17.597656 15.5625 -15.703125 C 15.5625 -14.753906 15.550781 -13.8125 15.53125 -12.875 C 15.519531 -11.945312 15.609375 -11.007812 15.796875 -10.0625 C 15.921875 -9.332031 16.125 -8.640625 16.40625 -7.984375 C 16.695312 -7.335938 17.175781 -6.796875 17.84375 -6.359375 C 18.09375 -6.234375 18.332031 -6.113281 18.5625 -6 C 18.800781 -5.882812 19.035156 -5.765625 19.265625 -5.640625 C 20.367188 -5.140625 21.457031 -4.910156 22.53125 -4.953125 C 23.601562 -5.003906 24.679688 -5.203125 25.765625 -5.546875 C 26.296875 -5.703125 26.828125 -5.882812 27.359375 -6.09375 C 27.898438 -6.300781 28.378906 -6.609375 28.796875 -7.015625 C 29.328125 -7.554688 29.742188 -8.140625 30.046875 -8.765625 C 30.347656 -9.398438 30.515625 -10.113281 30.546875 -10.90625 C 30.578125 -11.632812 30.597656 -12.347656 30.609375 -13.046875 C 30.628906 -13.742188 30.625 -14.4375 30.59375 -15.125 C 30.5625 -15.851562 30.53125 -16.570312 30.5 -17.28125 C 30.46875 -18 30.453125 -18.707031 30.453125 -19.40625 C 30.515625 -20.789062 30.535156 -22.1875 30.515625 -23.59375 C 30.503906 -25.007812 30.484375 -26.425781 30.453125 -27.84375 C 30.453125 -28.195312 30.4375 -28.546875 30.40625 -28.890625 C 30.375 -29.234375 30.328125 -29.582031 30.265625 -29.9375 C 30.234375 -30.4375 30.25 -30.9375 30.3125 -31.4375 C 30.375 -31.945312 30.375 -32.472656 30.3125 -33.015625 C 31.226562 -32.984375 32.117188 -32.984375 32.984375 -33.015625 C 33.859375 -33.046875 34.753906 -33 35.671875 -32.875 C 35.671875 -32.269531 35.675781 -31.691406 35.6875 -31.140625 C 35.707031 -30.585938 35.703125 -30.039062 35.671875 -29.5 C 35.640625 -28.613281 35.609375 -27.710938 35.578125 -26.796875 C 35.546875 -25.878906 35.546875 -24.960938 35.578125 -24.046875 C 35.640625 -22.753906 35.65625 -21.441406 35.625 -20.109375 C 35.59375 -18.785156 35.640625 -17.472656 35.765625 -16.171875 C 35.828125 -15.578125 35.84375 -14.976562 35.8125 -14.375 C 35.78125 -13.769531 35.78125 -13.171875 35.8125 -12.578125 C 35.84375 -11.878906 35.859375 -11.1875 35.859375 -10.5 C 35.859375 -9.820312 35.828125 -9.148438 35.765625 -8.484375 C 35.640625 -7.441406 35.332031 -6.46875 34.84375 -5.5625 C 34.351562 -4.664062 33.773438 -3.804688 33.109375 -2.984375 C 32.472656 -2.191406 31.742188 -1.585938 30.921875 -1.171875 C 30.109375 -0.765625 29.207031 -0.4375 28.21875 -0.1875 C 27.4375 0.03125 26.6875 0.191406 25.96875 0.296875 C 25.257812 0.410156 24.492188 0.515625 23.671875 0.609375 C 23.453125 0.648438 23.070312 0.691406 22.53125 0.734375 C 21.988281 0.785156 21.609375 0.796875 21.390625 0.765625 C 20.597656 0.765625 19.757812 0.769531 18.875 0.78125 C 17.988281 0.800781 17.039062 0.710938 16.03125 0.515625 C 14.707031 0.265625 13.375 0.0546875 12.03125 -0.109375 C 10.6875 -0.285156 9.410156 -0.707031 8.203125 -1.375 C 7.347656 -1.820312 6.601562 -2.296875 5.96875 -2.796875 C 5.34375 -3.304688 4.757812 -3.988281 4.21875 -4.84375 C 3.875 -5.40625 3.617188 -6.085938 3.453125 -6.890625 C 3.296875 -7.703125 3.234375 -8.410156 3.265625 -9.015625 C 3.304688 -10.304688 3.269531 -11.550781 3.15625 -12.75 C 3.039062 -13.957031 2.96875 -15.191406 2.9375 -16.453125 C 2.90625 -17.941406 2.90625 -19.429688 2.9375 -20.921875 C 2.96875 -22.410156 2.96875 -23.894531 2.9375 -25.375 C 2.9375 -26.582031 2.921875 -27.757812 2.890625 -28.90625 C 2.859375 -30.0625 2.84375 -31.226562 2.84375 -32.40625 C 2.84375 -32.5 2.847656 -32.59375 2.859375 -32.6875 C 2.878906 -32.78125 2.953125 -32.890625 3.078125 -33.015625 C 5.140625 -32.890625 7.1875 -32.910156 9.21875 -33.078125 C 11.257812 -33.253906 13.28125 -33.328125 15.28125 -33.296875 Z M 15.28125 -33.296875 "/></g></g></g><g fill="#004aad" fill-opacity="1"><g transform="translate(160.665168, 202.27966)"><g><path d="M 35.671875 -33.296875 C 35.921875 -33.328125 36.144531 -33.234375 36.34375 -33.015625 C 36.34375 -31.660156 36.289062 -30.285156 36.1875 -28.890625 C 36.15625 -28.546875 36.144531 -28.179688 36.15625 -27.796875 C 36.175781 -27.421875 36.207031 -27.054688 36.25 -26.703125 C 36.28125 -26.003906 36.300781 -25.304688 36.3125 -24.609375 C 36.332031 -23.921875 36.328125 -23.226562 36.296875 -22.53125 C 36.265625 -21.550781 36.265625 -20.578125 36.296875 -19.609375 C 36.328125 -18.648438 36.3125 -17.679688 36.25 -16.703125 C 36.207031 -15.816406 36.203125 -14.929688 36.234375 -14.046875 C 36.273438 -13.160156 36.3125 -12.257812 36.34375 -11.34375 C 36.375 -10.738281 36.378906 -10.132812 36.359375 -9.53125 C 36.347656 -8.9375 36.359375 -8.335938 36.390625 -7.734375 C 36.453125 -6.753906 36.453125 -5.773438 36.390625 -4.796875 C 36.328125 -3.816406 36.34375 -2.816406 36.4375 -1.796875 C 36.46875 -1.609375 36.484375 -1.421875 36.484375 -1.234375 C 36.484375 -1.046875 36.484375 -0.859375 36.484375 -0.671875 C 36.484375 -0.285156 36.304688 -0.078125 35.953125 -0.046875 C 35.859375 -0.015625 35.691406 -0.015625 35.453125 -0.046875 C 35.222656 -0.078125 35.039062 -0.09375 34.90625 -0.09375 C 34.0625 -0.09375 33.296875 -0.0664062 32.609375 -0.015625 C 31.929688 0.0234375 31.164062 0.03125 30.3125 0 C 30.0625 0 29.5625 0 28.8125 0 C 28.070312 0 27.28125 0.00390625 26.4375 0.015625 C 25.601562 0.0351562 24.878906 0.046875 24.265625 0.046875 C 23.648438 0.046875 23.328125 0.03125 23.296875 0 C 20.859375 -3.507812 18.347656 -6.972656 15.765625 -10.390625 C 13.191406 -13.804688 10.546875 -17.191406 7.828125 -20.546875 C 7.921875 -19.398438 7.957031 -18.265625 7.9375 -17.140625 C 7.925781 -16.023438 7.9375 -14.894531 7.96875 -13.75 C 8.03125 -12.644531 8.078125 -11.523438 8.109375 -10.390625 C 8.140625 -9.253906 8.1875 -8.128906 8.25 -7.015625 C 8.34375 -5.910156 8.363281 -4.796875 8.3125 -3.671875 C 8.269531 -2.554688 8.296875 -1.425781 8.390625 -0.28125 C 7.597656 -0.03125 6.773438 0.03125 5.921875 -0.09375 C 5.078125 -0.21875 4.242188 -0.15625 3.421875 0.09375 C 3.285156 0 3.203125 -0.109375 3.171875 -0.234375 C 3.140625 -0.359375 3.125 -0.484375 3.125 -0.609375 C 3.125 -1.335938 3.125 -2.050781 3.125 -2.75 C 3.125 -3.445312 3.140625 -4.160156 3.171875 -4.890625 C 3.234375 -5.648438 3.265625 -6.398438 3.265625 -7.140625 C 3.265625 -7.878906 3.285156 -8.628906 3.328125 -9.390625 C 3.328125 -10.492188 3.300781 -11.597656 3.25 -12.703125 C 3.195312 -13.816406 3.140625 -14.925781 3.078125 -16.03125 C 3.046875 -16.757812 3.03125 -17.488281 3.03125 -18.21875 C 3.03125 -18.945312 3.0625 -19.671875 3.125 -20.390625 C 3.15625 -20.804688 3.160156 -21.210938 3.140625 -21.609375 C 3.128906 -22.003906 3.09375 -22.40625 3.03125 -22.8125 C 3 -23.539062 2.988281 -24.257812 3 -24.96875 C 3.019531 -25.6875 3.03125 -26.394531 3.03125 -27.09375 C 3.03125 -27.90625 3.019531 -28.722656 3 -29.546875 C 2.988281 -30.367188 2.9375 -31.191406 2.84375 -32.015625 C 2.84375 -32.171875 2.84375 -32.3125 2.84375 -32.4375 C 2.84375 -32.570312 2.875 -32.75 2.9375 -32.96875 C 5.09375 -32.875 7.1875 -32.890625 9.21875 -33.015625 C 11.257812 -33.140625 13.375 -33.171875 15.5625 -33.109375 C 15.6875 -32.984375 15.800781 -32.875 15.90625 -32.78125 C 16.019531 -32.6875 16.09375 -32.5625 16.125 -32.40625 C 18.65625 -29.082031 21.203125 -25.742188 23.765625 -22.390625 C 26.328125 -19.035156 28.953125 -15.710938 31.640625 -12.421875 C 31.578125 -15.867188 31.578125 -19.289062 31.640625 -22.6875 C 31.703125 -26.09375 31.65625 -29.503906 31.5 -32.921875 C 31.78125 -32.984375 32.054688 -33.046875 32.328125 -33.109375 C 32.597656 -33.171875 32.859375 -33.203125 33.109375 -33.203125 C 33.554688 -33.234375 33.992188 -33.25 34.421875 -33.25 C 34.847656 -33.25 35.265625 -33.265625 35.671875 -33.296875 Z M 35.671875 -33.296875 "/></g></g></g><g fill="#004aad" fill-opacity="1"><g transform="translate(200.078797, 202.27966)"><g><path d="M 15.46875 -33.296875 C 15.8125 -33.328125 16.0625 -33.28125 16.21875 -33.15625 C 16.375 -33.03125 16.4375 -32.78125 16.40625 -32.40625 C 16.34375 -31.738281 16.34375 -31.054688 16.40625 -30.359375 C 16.476562 -29.472656 16.476562 -28.570312 16.40625 -27.65625 C 16.34375 -26.738281 16.328125 -25.820312 16.359375 -24.90625 C 16.390625 -24.394531 16.390625 -23.878906 16.359375 -23.359375 C 16.328125 -22.835938 16.328125 -22.3125 16.359375 -21.78125 C 16.390625 -20.925781 16.394531 -20.070312 16.375 -19.21875 C 16.363281 -18.363281 16.359375 -17.507812 16.359375 -16.65625 C 16.328125 -15.632812 16.296875 -14.609375 16.265625 -13.578125 C 16.234375 -12.554688 16.25 -11.539062 16.3125 -10.53125 C 16.375 -9.832031 16.394531 -9.128906 16.375 -8.421875 C 16.363281 -7.710938 16.359375 -6.992188 16.359375 -6.265625 C 16.390625 -5.503906 16.394531 -4.734375 16.375 -3.953125 C 16.363281 -3.179688 16.359375 -2.398438 16.359375 -1.609375 C 16.359375 -1.515625 16.363281 -1.421875 16.375 -1.328125 C 16.394531 -1.234375 16.421875 -1.140625 16.453125 -1.046875 C 16.523438 -0.828125 16.503906 -0.632812 16.390625 -0.46875 C 16.273438 -0.3125 16.109375 -0.234375 15.890625 -0.234375 C 14.972656 -0.234375 14.0625 -0.1875 13.15625 -0.09375 C 12.257812 0 11.351562 0.0625 10.4375 0.09375 C 9.957031 0.125 9.488281 0.113281 9.03125 0.0625 C 8.570312 0.0195312 8.109375 -0.015625 7.640625 -0.046875 C 6.941406 -0.078125 6.234375 -0.0976562 5.515625 -0.109375 C 4.804688 -0.128906 4.09375 -0.078125 3.375 0.046875 C 3.050781 -0.140625 2.890625 -0.472656 2.890625 -0.953125 C 2.953125 -1.515625 3.003906 -2.082031 3.046875 -2.65625 C 3.097656 -3.226562 3.09375 -3.78125 3.03125 -4.3125 C 3 -4.945312 2.96875 -5.554688 2.9375 -6.140625 C 2.90625 -6.722656 2.90625 -7.316406 2.9375 -7.921875 C 2.96875 -9.023438 3 -10.125 3.03125 -11.21875 C 3.0625 -12.3125 3.0625 -13.394531 3.03125 -14.46875 C 3 -15.070312 3 -15.671875 3.03125 -16.265625 C 3.0625 -16.867188 3.078125 -17.472656 3.078125 -18.078125 C 3.078125 -18.804688 3.082031 -19.539062 3.09375 -20.28125 C 3.113281 -21.019531 3.109375 -21.753906 3.078125 -22.484375 C 3.078125 -23.023438 3.09375 -23.570312 3.125 -24.125 C 3.15625 -24.675781 3.140625 -25.207031 3.078125 -25.71875 C 3.046875 -26.09375 3.003906 -26.460938 2.953125 -26.828125 C 2.910156 -27.191406 2.890625 -27.5625 2.890625 -27.9375 C 2.859375 -28.320312 2.859375 -28.703125 2.890625 -29.078125 C 2.921875 -29.453125 2.9375 -29.832031 2.9375 -30.21875 C 2.9375 -30.5 2.925781 -30.859375 2.90625 -31.296875 C 2.894531 -31.742188 2.878906 -32.148438 2.859375 -32.515625 C 2.847656 -32.878906 2.84375 -33.0625 2.84375 -33.0625 C 3.320312 -33.125 3.789062 -33.140625 4.25 -33.109375 C 4.707031 -33.078125 5.15625 -33.109375 5.59375 -33.203125 C 5.976562 -33.296875 6.359375 -33.316406 6.734375 -33.265625 C 7.117188 -33.222656 7.5 -33.1875 7.875 -33.15625 C 8.507812 -33.125 9.125 -33.125 9.71875 -33.15625 C 10.769531 -33.21875 11.800781 -33.21875 12.8125 -33.15625 C 13.695312 -33.125 14.582031 -33.171875 15.46875 -33.296875 Z M 15.46875 -33.296875 "/></g></g></g><g fill="#004aad" fill-opacity="1"><g transform="translate(219.524755, 202.27966)"><g><path d="M 30.59375 -33.390625 C 30.78125 -33.390625 30.96875 -33.375 31.15625 -33.34375 C 31.351562 -33.3125 31.53125 -33.203125 31.6875 -33.015625 C 31.59375 -32.546875 31.578125 -32.046875 31.640625 -31.515625 C 31.703125 -30.992188 31.753906 -30.460938 31.796875 -29.921875 C 31.847656 -29.390625 31.75 -28.851562 31.5 -28.3125 C 30.132812 -28.28125 28.769531 -28.21875 27.40625 -28.125 C 26.050781 -28.03125 24.710938 -27.953125 23.390625 -27.890625 C 23.265625 -27.421875 23.203125 -26.957031 23.203125 -26.5 C 23.203125 -26.039062 23.21875 -25.585938 23.25 -25.140625 C 23.34375 -24.191406 23.390625 -23.234375 23.390625 -22.265625 C 23.390625 -21.304688 23.421875 -20.335938 23.484375 -19.359375 C 23.515625 -18.691406 23.546875 -18.023438 23.578125 -17.359375 C 23.609375 -16.691406 23.625 -16.03125 23.625 -15.375 C 23.625 -14.800781 23.578125 -14.226562 23.484375 -13.65625 C 23.390625 -13.09375 23.359375 -12.523438 23.390625 -11.953125 C 23.453125 -10.691406 23.488281 -9.421875 23.5 -8.140625 C 23.519531 -6.859375 23.5 -5.566406 23.4375 -4.265625 C 23.40625 -3.796875 23.421875 -3.320312 23.484375 -2.84375 C 23.546875 -2.375 23.59375 -1.882812 23.625 -1.375 C 23.625 -1.1875 23.625 -0.976562 23.625 -0.75 C 23.625 -0.53125 23.546875 -0.296875 23.390625 -0.046875 C 21.296875 0.078125 19.195312 0.09375 17.09375 0 C 15 -0.09375 12.90625 -0.046875 10.8125 0.140625 C 10.5625 -0.015625 10.421875 -0.21875 10.390625 -0.46875 C 10.359375 -0.726562 10.359375 -0.984375 10.390625 -1.234375 C 10.546875 -2.335938 10.625 -3.453125 10.625 -4.578125 C 10.625 -5.703125 10.59375 -6.800781 10.53125 -7.875 C 10.4375 -9.363281 10.390625 -10.832031 10.390625 -12.28125 C 10.390625 -13.738281 10.40625 -15.195312 10.4375 -16.65625 C 10.4375 -17.375 10.421875 -18.113281 10.390625 -18.875 C 10.359375 -19.632812 10.375 -20.394531 10.4375 -21.15625 C 10.53125 -22.164062 10.535156 -23.164062 10.453125 -24.15625 C 10.378906 -25.15625 10.328125 -26.164062 10.296875 -27.1875 C 10.296875 -27.3125 10.296875 -27.4375 10.296875 -27.5625 C 10.296875 -27.6875 10.21875 -27.8125 10.0625 -27.9375 C 9.582031 -28.03125 9.085938 -28.066406 8.578125 -28.046875 C 8.078125 -28.035156 7.570312 -28.046875 7.0625 -28.078125 C 6.46875 -28.140625 5.859375 -28.15625 5.234375 -28.125 C 4.617188 -28.09375 4 -28.046875 3.375 -27.984375 C 3.113281 -27.953125 2.859375 -27.957031 2.609375 -28 C 2.359375 -28.050781 2.117188 -28.191406 1.890625 -28.421875 C 2.085938 -29.140625 2.117188 -29.851562 1.984375 -30.5625 C 1.859375 -31.28125 1.878906 -32.003906 2.046875 -32.734375 C 2.296875 -32.890625 2.5625 -32.957031 2.84375 -32.9375 C 3.125 -32.925781 3.410156 -32.921875 3.703125 -32.921875 C 4.710938 -32.953125 5.722656 -32.957031 6.734375 -32.9375 C 7.742188 -32.925781 8.738281 -32.9375 9.71875 -32.96875 C 11.65625 -33.125 13.570312 -33.175781 15.46875 -33.125 C 17.363281 -33.082031 19.257812 -33.09375 21.15625 -33.15625 C 22.738281 -33.21875 24.316406 -33.265625 25.890625 -33.296875 C 27.472656 -33.328125 29.039062 -33.359375 30.59375 -33.390625 Z M 30.59375 -33.390625 "/></g></g></g><g fill="#004aad" fill-opacity="1"><g transform="translate(252.962313, 202.27966)"><g><path d="M 30.5 -33.203125 C 31.539062 -33.296875 32.015625 -32.882812 31.921875 -31.96875 C 31.859375 -31.53125 31.84375 -31.097656 31.875 -30.671875 C 31.90625 -30.242188 31.9375 -29.804688 31.96875 -29.359375 C 32 -29.234375 32 -29.113281 31.96875 -29 C 31.9375 -28.894531 31.90625 -28.78125 31.875 -28.65625 C 29.1875 -28.625 26.5 -28.640625 23.8125 -28.703125 C 21.125 -28.765625 18.4375 -28.671875 15.75 -28.421875 C 15.8125 -26.992188 15.800781 -25.519531 15.71875 -24 C 15.644531 -22.476562 15.6875 -20.992188 15.84375 -19.546875 C 16.382812 -19.609375 16.921875 -19.597656 17.453125 -19.515625 C 17.992188 -19.441406 18.53125 -19.4375 19.0625 -19.5 C 19.445312 -19.5625 19.828125 -19.59375 20.203125 -19.59375 C 20.585938 -19.59375 20.96875 -19.578125 21.34375 -19.546875 C 22.164062 -19.546875 22.992188 -19.566406 23.828125 -19.609375 C 24.671875 -19.660156 25.503906 -19.703125 26.328125 -19.734375 C 26.734375 -19.765625 27.132812 -19.785156 27.53125 -19.796875 C 27.925781 -19.816406 28.332031 -19.8125 28.75 -19.78125 C 29.476562 -19.71875 29.8125 -19.351562 29.75 -18.6875 C 29.71875 -18.15625 29.707031 -17.625 29.71875 -17.09375 C 29.738281 -16.570312 29.765625 -16.046875 29.796875 -15.515625 C 29.796875 -14.941406 29.539062 -14.65625 29.03125 -14.65625 C 28.59375 -14.65625 28.140625 -14.644531 27.671875 -14.625 C 27.210938 -14.613281 26.765625 -14.609375 26.328125 -14.609375 C 25.472656 -14.609375 24.625 -14.59375 23.78125 -14.5625 C 22.945312 -14.53125 22.101562 -14.5 21.25 -14.46875 C 20.9375 -14.4375 20.613281 -14.421875 20.28125 -14.421875 C 19.945312 -14.421875 19.609375 -14.421875 19.265625 -14.421875 L 15.75 -14.421875 C 15.625 -12.773438 15.609375 -11.128906 15.703125 -9.484375 C 15.796875 -7.835938 15.875 -6.191406 15.9375 -4.546875 C 16.125 -4.421875 16.328125 -4.375 16.546875 -4.40625 C 16.773438 -4.4375 17 -4.4375 17.21875 -4.40625 C 17.726562 -4.375 18.234375 -4.347656 18.734375 -4.328125 C 19.242188 -4.316406 19.734375 -4.328125 20.203125 -4.359375 C 20.835938 -4.421875 21.453125 -4.453125 22.046875 -4.453125 C 22.648438 -4.453125 23.253906 -4.5 23.859375 -4.59375 C 24.210938 -4.664062 24.582031 -4.679688 24.96875 -4.640625 C 25.363281 -4.609375 25.753906 -4.613281 26.140625 -4.65625 C 26.929688 -4.75 27.722656 -4.796875 28.515625 -4.796875 C 29.304688 -4.796875 30.09375 -4.796875 30.875 -4.796875 C 31.351562 -4.796875 31.828125 -4.847656 32.296875 -4.953125 C 32.773438 -5.066406 33.269531 -5 33.78125 -4.75 L 33.78125 -1.1875 C 33.84375 -0.457031 33.523438 -0.125 32.828125 -0.1875 C 32.035156 -0.21875 31.242188 -0.191406 30.453125 -0.109375 C 29.660156 -0.0351562 28.851562 -0.015625 28.03125 -0.046875 C 27.019531 -0.109375 26 -0.125 24.96875 -0.09375 C 23.945312 -0.0625 22.929688 -0.03125 21.921875 0 C 20.617188 0.03125 19.300781 0.046875 17.96875 0.046875 C 16.644531 0.046875 15.320312 0.046875 14 0.046875 C 13.863281 0.046875 13.550781 0.0507812 13.0625 0.0625 C 12.570312 0.0820312 12.019531 0.109375 11.40625 0.140625 C 10.789062 0.171875 10.207031 0.191406 9.65625 0.203125 C 9.101562 0.222656 8.695312 0.234375 8.4375 0.234375 C 7.84375 0.171875 7.25 0.125 6.65625 0.09375 C 6.070312 0.0625 5.46875 0.046875 4.84375 0.046875 C 4.613281 0.046875 4.269531 0.0664062 3.8125 0.109375 C 3.351562 0.160156 3.125 0.140625 3.125 0.046875 C 3.1875 -0.617188 3.207031 -1.289062 3.1875 -1.96875 C 3.175781 -2.644531 3.140625 -3.316406 3.078125 -3.984375 C 2.984375 -4.898438 2.984375 -5.847656 3.078125 -6.828125 C 3.140625 -7.304688 3.160156 -7.796875 3.140625 -8.296875 C 3.128906 -8.804688 3.125 -9.3125 3.125 -9.8125 C 3.125 -10.226562 3.128906 -10.632812 3.140625 -11.03125 C 3.160156 -11.425781 3.140625 -11.828125 3.078125 -12.234375 C 3.046875 -12.867188 3.003906 -13.5 2.953125 -14.125 C 2.910156 -14.757812 2.890625 -15.394531 2.890625 -16.03125 C 2.890625 -16.695312 2.878906 -17.367188 2.859375 -18.046875 C 2.847656 -18.722656 2.84375 -19.394531 2.84375 -20.0625 C 2.875 -20.726562 2.894531 -21.390625 2.90625 -22.046875 C 2.925781 -22.710938 2.953125 -23.378906 2.984375 -24.046875 C 3.046875 -26.296875 3.046875 -28.207031 2.984375 -29.78125 C 2.921875 -31.363281 2.875 -32.316406 2.84375 -32.640625 C 2.90625 -32.703125 2.984375 -32.75 3.078125 -32.78125 C 3.171875 -32.8125 3.234375 -32.859375 3.265625 -32.921875 C 3.492188 -32.984375 3.675781 -33.003906 3.8125 -32.984375 C 3.957031 -32.972656 4.140625 -32.96875 4.359375 -32.96875 C 5.847656 -33.03125 7.34375 -33.035156 8.84375 -32.984375 C 10.34375 -32.941406 11.835938 -32.953125 13.328125 -33.015625 C 13.867188 -33.046875 14.40625 -33.050781 14.9375 -33.03125 C 15.476562 -33.019531 16.003906 -33.03125 16.515625 -33.0625 C 17.265625 -33.125 18.023438 -33.128906 18.796875 -33.078125 C 19.578125 -33.035156 20.347656 -33.046875 21.109375 -33.109375 C 21.835938 -33.171875 22.582031 -33.175781 23.34375 -33.125 C 24.101562 -33.082031 24.859375 -33.09375 25.609375 -33.15625 C 26.335938 -33.21875 27.082031 -33.238281 27.84375 -33.21875 C 28.601562 -33.207031 29.363281 -33.203125 30.125 -33.203125 Z M 30.5 -33.203125 "/></g></g></g><g fill="#004aad" fill-opacity="1"><g transform="translate(288.154735, 202.27966)"><g><path d="M 10.296875 -33.25 C 10.578125 -33.21875 11.175781 -33.191406 12.09375 -33.171875 C 13.007812 -33.160156 14.015625 -33.15625 15.109375 -33.15625 C 16.203125 -33.15625 17.207031 -33.15625 18.125 -33.15625 C 19.039062 -33.15625 19.65625 -33.171875 19.96875 -33.203125 C 20.351562 -33.234375 20.84375 -33.234375 21.4375 -33.203125 C 22.039062 -33.171875 22.648438 -33.144531 23.265625 -33.125 C 23.878906 -33.113281 24.378906 -33.125 24.765625 -33.15625 C 25.234375 -33.1875 25.742188 -33.140625 26.296875 -33.015625 C 26.859375 -32.890625 27.375 -32.796875 27.84375 -32.734375 C 28.539062 -32.703125 29.203125 -32.566406 29.828125 -32.328125 C 30.460938 -32.085938 31.082031 -31.84375 31.6875 -31.59375 C 32.570312 -31.21875 33.363281 -30.695312 34.0625 -30.03125 C 34.40625 -29.738281 34.765625 -29.472656 35.140625 -29.234375 C 35.523438 -29.003906 35.859375 -28.71875 36.140625 -28.375 C 36.429688 -28.050781 36.703125 -27.707031 36.953125 -27.34375 C 37.203125 -26.976562 37.441406 -26.609375 37.671875 -26.234375 C 38.015625 -25.691406 38.296875 -25.113281 38.515625 -24.5 C 38.734375 -23.882812 38.972656 -23.273438 39.234375 -22.671875 C 39.265625 -22.578125 39.296875 -22.484375 39.328125 -22.390625 C 39.359375 -22.296875 39.375 -22.203125 39.375 -22.109375 C 39.375 -21.785156 39.441406 -21.273438 39.578125 -20.578125 C 39.722656 -19.890625 39.796875 -19.226562 39.796875 -18.59375 C 39.796875 -17.738281 39.753906 -16.914062 39.671875 -16.125 C 39.597656 -15.332031 39.53125 -14.492188 39.46875 -13.609375 C 39.4375 -12.566406 39.285156 -11.554688 39.015625 -10.578125 C 38.742188 -9.597656 38.40625 -8.632812 38 -7.6875 C 37.363281 -6.164062 36.445312 -4.851562 35.25 -3.75 C 34.832031 -3.363281 34.398438 -2.988281 33.953125 -2.625 C 33.515625 -2.269531 33.046875 -1.960938 32.546875 -1.703125 C 32.003906 -1.421875 31.457031 -1.175781 30.90625 -0.96875 C 30.351562 -0.769531 29.773438 -0.632812 29.171875 -0.5625 C 28.671875 -0.53125 28.164062 -0.453125 27.65625 -0.328125 C 27.144531 -0.203125 26.640625 -0.140625 26.140625 -0.140625 C 25.222656 -0.171875 24.304688 -0.144531 23.390625 -0.0625 C 22.472656 0.0078125 21.554688 0.03125 20.640625 0 C 19.242188 -0.03125 17.832031 -0.0664062 16.40625 -0.109375 C 14.988281 -0.160156 13.582031 -0.15625 12.1875 -0.09375 C 11.363281 -0.0625 10.546875 -0.078125 9.734375 -0.140625 C 8.929688 -0.203125 8.125 -0.203125 7.3125 -0.140625 C 6.613281 -0.109375 5.921875 -0.09375 5.234375 -0.09375 C 4.554688 -0.09375 3.882812 -0.0625 3.21875 0 C 3.03125 -0.40625 2.941406 -0.734375 2.953125 -0.984375 C 2.972656 -1.242188 3 -1.515625 3.03125 -1.796875 C 3.09375 -2.335938 3.113281 -2.859375 3.09375 -3.359375 C 3.082031 -3.867188 3.078125 -4.378906 3.078125 -4.890625 L 3.078125 -8.390625 L 2.9375 -11.046875 C 2.90625 -11.523438 2.878906 -11.992188 2.859375 -12.453125 C 2.847656 -12.910156 2.859375 -13.359375 2.890625 -13.796875 C 2.953125 -14.429688 2.972656 -15.070312 2.953125 -15.71875 C 2.941406 -16.375 2.9375 -17.015625 2.9375 -17.640625 C 2.90625 -18.691406 2.90625 -19.753906 2.9375 -20.828125 C 2.96875 -21.296875 2.984375 -21.773438 2.984375 -22.265625 C 2.984375 -22.753906 2.984375 -23.238281 2.984375 -23.71875 L 2.984375 -28.265625 C 2.984375 -28.960938 2.957031 -29.570312 2.90625 -30.09375 C 2.863281 -30.613281 2.859375 -31.222656 2.890625 -31.921875 C 2.890625 -32.046875 2.890625 -32.242188 2.890625 -32.515625 C 2.890625 -32.785156 2.921875 -32.984375 2.984375 -33.109375 C 3.429688 -33.234375 3.867188 -33.285156 4.296875 -33.265625 C 4.722656 -33.253906 5.140625 -33.234375 5.546875 -33.203125 C 6.367188 -33.171875 7.164062 -33.1875 7.9375 -33.25 C 8.71875 -33.3125 9.503906 -33.3125 10.296875 -33.25 Z M 19.453125 -28.515625 C 19.035156 -28.515625 18.628906 -28.503906 18.234375 -28.484375 C 17.835938 -28.472656 17.4375 -28.484375 17.03125 -28.515625 C 16.84375 -28.515625 16.648438 -28.5 16.453125 -28.46875 C 16.265625 -28.4375 16.078125 -28.382812 15.890625 -28.3125 C 15.984375 -27.625 15.988281 -26.953125 15.90625 -26.296875 C 15.832031 -25.648438 15.8125 -24.992188 15.84375 -24.328125 C 15.875 -23.796875 15.878906 -23.195312 15.859375 -22.53125 C 15.847656 -21.863281 15.832031 -21.242188 15.8125 -20.671875 C 15.800781 -20.109375 15.8125 -19.71875 15.84375 -19.5 C 15.875 -19.34375 15.890625 -18.9375 15.890625 -18.28125 C 15.890625 -17.632812 15.878906 -16.890625 15.859375 -16.046875 C 15.847656 -15.210938 15.832031 -14.414062 15.8125 -13.65625 C 15.800781 -12.90625 15.796875 -12.335938 15.796875 -11.953125 C 15.796875 -11.160156 15.816406 -10.351562 15.859375 -9.53125 C 15.910156 -8.707031 15.953125 -7.882812 15.984375 -7.0625 C 16.015625 -6.71875 16.003906 -6.367188 15.953125 -6.015625 C 15.910156 -5.671875 15.96875 -5.328125 16.125 -4.984375 C 16.632812 -4.984375 17.171875 -4.984375 17.734375 -4.984375 C 18.304688 -4.984375 18.847656 -5 19.359375 -5.03125 C 19.921875 -5.09375 20.460938 -5.191406 20.984375 -5.328125 C 21.515625 -5.472656 22.03125 -5.738281 22.53125 -6.125 C 22.976562 -6.46875 23.359375 -6.828125 23.671875 -7.203125 C 23.984375 -7.585938 24.253906 -8.015625 24.484375 -8.484375 C 24.859375 -9.335938 25.128906 -10.253906 25.296875 -11.234375 C 25.472656 -12.222656 25.578125 -13.109375 25.609375 -13.890625 C 25.640625 -14.679688 25.640625 -15.207031 25.609375 -15.46875 C 25.578125 -16.09375 25.566406 -16.707031 25.578125 -17.3125 C 25.597656 -17.914062 25.59375 -18.519531 25.5625 -19.125 C 25.5625 -19.625 25.503906 -20.179688 25.390625 -20.796875 C 25.285156 -21.410156 25.15625 -21.988281 25 -22.53125 C 24.875 -23.070312 24.722656 -23.5625 24.546875 -24 C 24.367188 -24.445312 24.15625 -24.90625 23.90625 -25.375 C 23.4375 -26.289062 22.84375 -27.035156 22.125 -27.609375 C 21.414062 -28.179688 20.523438 -28.484375 19.453125 -28.515625 Z M 19.453125 -28.515625 "/></g></g></g><g fill="#f1f8ff" fill-opacity="1"><g transform="translate(96.833048, 236.577464)"><g><path d="M 3.59375 0 C 3.09375 0 2.664062 -0.171875 2.3125 -0.515625 C 1.957031 -0.867188 1.78125 -1.300781 1.78125 -1.8125 L 1.78125 -19.8125 C 1.78125 -20.332031 1.957031 -20.765625 2.3125 -21.109375 C 2.664062 -21.453125 3.09375 -21.625 3.59375 -21.625 L 14.859375 -21.625 C 16.085938 -21.625 17.179688 -21.347656 18.140625 -20.796875 C 19.097656 -20.242188 19.847656 -19.488281 20.390625 -18.53125 C 20.941406 -17.582031 21.21875 -16.492188 21.21875 -15.265625 L 21.21875 -14.8125 C 21.21875 -13.582031 20.941406 -12.488281 20.390625 -11.53125 C 19.847656 -10.582031 19.097656 -9.832031 18.140625 -9.28125 C 17.179688 -8.726562 16.085938 -8.453125 14.859375 -8.453125 L 9.484375 -8.453125 C 9.003906 -8.453125 8.585938 -8.273438 8.234375 -7.921875 C 7.878906 -7.578125 7.703125 -7.160156 7.703125 -6.671875 L 7.703125 -1.8125 C 7.703125 -1.300781 7.53125 -0.867188 7.1875 -0.515625 C 6.84375 -0.171875 6.410156 0 5.890625 0 Z M 9.453125 -13.1875 L 13.515625 -13.1875 C 14.015625 -13.1875 14.4375 -13.359375 14.78125 -13.703125 C 15.125 -14.046875 15.296875 -14.460938 15.296875 -14.953125 C 15.296875 -15.453125 15.125 -15.875 14.78125 -16.21875 C 14.4375 -16.5625 14.015625 -16.734375 13.515625 -16.734375 L 9.453125 -16.734375 C 8.972656 -16.734375 8.5625 -16.5625 8.21875 -16.21875 C 7.875 -15.875 7.703125 -15.453125 7.703125 -14.953125 C 7.703125 -14.460938 7.875 -14.046875 8.21875 -13.703125 C 8.5625 -13.359375 8.972656 -13.1875 9.453125 -13.1875 Z M 9.453125 -13.1875 "/></g></g></g><g fill="#f1f8ff" fill-opacity="1"><g transform="translate(119.829995, 236.577464)"><g><path d="M 3.59375 0 C 3.09375 0 2.664062 -0.171875 2.3125 -0.515625 C 1.957031 -0.867188 1.78125 -1.300781 1.78125 -1.8125 L 1.78125 -19.8125 C 1.78125 -20.332031 1.957031 -20.765625 2.3125 -21.109375 C 2.664062 -21.453125 3.09375 -21.625 3.59375 -21.625 L 19.4375 -21.625 C 19.957031 -21.625 20.390625 -21.453125 20.734375 -21.109375 C 21.078125 -20.765625 21.25 -20.332031 21.25 -19.8125 L 21.25 -18.546875 C 21.25 -18.035156 21.078125 -17.601562 20.734375 -17.25 C 20.390625 -16.90625 19.957031 -16.734375 19.4375 -16.734375 L 9.453125 -16.734375 C 8.972656 -16.734375 8.5625 -16.5625 8.21875 -16.21875 C 7.875 -15.875 7.703125 -15.453125 7.703125 -14.953125 C 7.703125 -14.460938 7.875 -14.046875 8.21875 -13.703125 C 8.5625 -13.359375 8.972656 -13.1875 9.453125 -13.1875 L 18.359375 -13.1875 C 18.878906 -13.1875 19.3125 -13.015625 19.65625 -12.671875 C 20 -12.328125 20.171875 -11.894531 20.171875 -11.375 L 20.171875 -10.296875 C 20.171875 -9.773438 19.992188 -9.335938 19.640625 -8.984375 C 19.285156 -8.628906 18.859375 -8.453125 18.359375 -8.453125 L 9.453125 -8.453125 C 8.972656 -8.453125 8.5625 -8.273438 8.21875 -7.921875 C 7.875 -7.578125 7.703125 -7.160156 7.703125 -6.671875 C 7.703125 -6.171875 7.875 -5.75 8.21875 -5.40625 C 8.5625 -5.0625 8.972656 -4.890625 9.453125 -4.890625 L 19.4375 -4.890625 C 19.957031 -4.890625 20.390625 -4.71875 20.734375 -4.375 C 21.078125 -4.03125 21.25 -3.597656 21.25 -3.078125 L 21.25 -1.8125 C 21.25 -1.300781 21.078125 -0.867188 20.734375 -0.515625 C 20.390625 -0.171875 19.957031 0 19.4375 0 Z M 3.59375 0 "/></g></g></g><g fill="#f1f8ff" fill-opacity="1"><g transform="translate(142.853962, 236.577464)"><g><path d="M 3.59375 0 C 3.09375 0 2.664062 -0.171875 2.3125 -0.515625 C 1.957031 -0.867188 1.78125 -1.300781 1.78125 -1.8125 L 1.78125 -3.078125 C 1.78125 -3.597656 1.957031 -4.03125 2.3125 -4.375 C 2.664062 -4.71875 3.09375 -4.890625 3.59375 -4.890625 L 13.515625 -4.890625 C 14.015625 -4.890625 14.4375 -5.0625 14.78125 -5.40625 C 15.125 -5.75 15.296875 -6.171875 15.296875 -6.671875 C 15.296875 -7.160156 15.125 -7.578125 14.78125 -7.921875 C 14.4375 -8.273438 14.015625 -8.453125 13.515625 -8.453125 L 8.140625 -8.453125 C 6.910156 -8.453125 5.816406 -8.726562 4.859375 -9.28125 C 3.910156 -9.832031 3.160156 -10.582031 2.609375 -11.53125 C 2.054688 -12.488281 1.78125 -13.582031 1.78125 -14.8125 L 1.78125 -15.265625 C 1.78125 -16.492188 2.054688 -17.582031 2.609375 -18.53125 C 3.160156 -19.488281 3.910156 -20.242188 4.859375 -20.796875 C 5.816406 -21.347656 6.910156 -21.625 8.140625 -21.625 L 19.40625 -21.625 C 19.925781 -21.625 20.359375 -21.453125 20.703125 -21.109375 C 21.046875 -20.765625 21.21875 -20.332031 21.21875 -19.8125 L 21.21875 -18.546875 C 21.21875 -18.035156 21.046875 -17.601562 20.703125 -17.25 C 20.359375 -16.90625 19.925781 -16.734375 19.40625 -16.734375 L 9.453125 -16.734375 C 8.972656 -16.734375 8.5625 -16.5625 8.21875 -16.21875 C 7.875 -15.875 7.703125 -15.453125 7.703125 -14.953125 C 7.703125 -14.460938 7.875 -14.046875 8.21875 -13.703125 C 8.5625 -13.359375 8.972656 -13.1875 9.453125 -13.1875 L 14.859375 -13.1875 C 16.085938 -13.1875 17.179688 -12.910156 18.140625 -12.359375 C 19.097656 -11.816406 19.847656 -11.066406 20.390625 -10.109375 C 20.941406 -9.148438 21.21875 -8.0625 21.21875 -6.84375 L 21.21875 -6.359375 C 21.21875 -5.128906 20.941406 -4.035156 20.390625 -3.078125 C 19.847656 -2.128906 19.097656 -1.378906 18.140625 -0.828125 C 17.179688 -0.273438 16.085938 0 14.859375 0 Z M 3.59375 0 "/></g></g></g><g fill="#f1f8ff" fill-opacity="1"><g transform="translate(165.850909, 236.577464)"><g><path d="M 9.515625 0 C 8.347656 0 7.765625 -0.59375 7.765625 -1.78125 L 7.765625 -14.96875 C 7.765625 -15.457031 7.585938 -15.875 7.234375 -16.21875 C 6.878906 -16.5625 6.453125 -16.734375 5.953125 -16.734375 L 3.5625 -16.734375 C 2.375 -16.734375 1.78125 -17.328125 1.78125 -18.515625 L 1.78125 -19.875 C 1.78125 -21.0625 2.375 -21.65625 3.5625 -21.65625 L 17.875 -21.625 C 19.0625 -21.625 19.65625 -21.03125 19.65625 -19.84375 L 19.65625 -18.515625 C 19.65625 -17.328125 19.0625 -16.734375 17.875 -16.734375 L 15.46875 -16.734375 C 14.976562 -16.734375 14.554688 -16.5625 14.203125 -16.21875 C 13.847656 -15.875 13.671875 -15.457031 13.671875 -14.96875 L 13.671875 -1.75 C 13.671875 -0.582031 13.078125 0 11.890625 0 Z M 9.515625 0 "/></g></g></g><g fill="#f1f8ff" fill-opacity="1"><g transform="translate(187.280495, 236.577464)"><g/></g></g><g fill="#f1f8ff" fill-opacity="1"><g transform="translate(197.603443, 236.577464)"><g><path d="M 8.40625 0 C 7.125 0 5.984375 -0.28125 4.984375 -0.84375 C 3.984375 -1.414062 3.195312 -2.203125 2.625 -3.203125 C 2.0625 -4.203125 1.78125 -5.34375 1.78125 -6.625 L 1.78125 -15 C 1.78125 -16.28125 2.0625 -17.421875 2.625 -18.421875 C 3.195312 -19.421875 3.984375 -20.203125 4.984375 -20.765625 C 5.984375 -21.335938 7.125 -21.625 8.40625 -21.625 L 19.40625 -21.625 C 19.925781 -21.625 20.359375 -21.453125 20.703125 -21.109375 C 21.046875 -20.765625 21.21875 -20.332031 21.21875 -19.8125 L 21.21875 -18.515625 C 21.21875 -18.015625 21.039062 -17.59375 20.6875 -17.25 C 20.34375 -16.90625 19.914062 -16.734375 19.40625 -16.734375 L 9.453125 -16.734375 C 8.972656 -16.734375 8.5625 -16.5625 8.21875 -16.21875 C 7.875 -15.875 7.703125 -15.453125 7.703125 -14.953125 L 7.703125 -6.671875 C 7.703125 -6.171875 7.875 -5.75 8.21875 -5.40625 C 8.5625 -5.0625 8.972656 -4.890625 9.453125 -4.890625 L 19.40625 -4.890625 C 19.925781 -4.890625 20.359375 -4.71875 20.703125 -4.375 C 21.046875 -4.03125 21.21875 -3.597656 21.21875 -3.078125 L 21.21875 -1.8125 C 21.21875 -1.300781 21.046875 -0.867188 20.703125 -0.515625 C 20.359375 -0.171875 19.925781 0 19.40625 0 Z M 8.40625 0 "/></g></g></g><g fill="#f1f8ff" fill-opacity="1"><g transform="translate(220.60039, 236.577464)"><g><path d="M 8.40625 0 C 7.125 0 5.984375 -0.28125 4.984375 -0.84375 C 3.984375 -1.414062 3.195312 -2.203125 2.625 -3.203125 C 2.0625 -4.203125 1.78125 -5.34375 1.78125 -6.625 L 1.78125 -15 C 1.78125 -16.28125 2.0625 -17.421875 2.625 -18.421875 C 3.195312 -19.421875 3.984375 -20.203125 4.984375 -20.765625 C 5.984375 -21.335938 7.125 -21.625 8.40625 -21.625 L 10.546875 -21.625 C 11.828125 -21.625 12.96875 -21.335938 13.96875 -20.765625 C 14.96875 -20.203125 15.75 -19.421875 16.3125 -18.421875 C 16.882812 -17.421875 17.171875 -16.28125 17.171875 -15 L 17.171875 -6.625 C 17.171875 -5.34375 16.882812 -4.203125 16.3125 -3.203125 C 15.75 -2.203125 14.96875 -1.414062 13.96875 -0.84375 C 12.96875 -0.28125 11.828125 0 10.546875 0 Z M 9.453125 -4.890625 C 9.960938 -4.890625 10.390625 -5.0625 10.734375 -5.40625 C 11.078125 -5.75 11.25 -6.171875 11.25 -6.671875 L 11.25 -14.953125 C 11.25 -15.453125 11.078125 -15.875 10.734375 -16.21875 C 10.390625 -16.5625 9.960938 -16.734375 9.453125 -16.734375 C 8.972656 -16.734375 8.5625 -16.5625 8.21875 -16.21875 C 7.875 -15.875 7.703125 -15.453125 7.703125 -14.953125 L 7.703125 -6.671875 C 7.703125 -6.171875 7.875 -5.75 8.21875 -5.40625 C 8.5625 -5.0625 8.972656 -4.890625 9.453125 -4.890625 Z M 9.453125 -4.890625 "/></g></g></g><g fill="#f1f8ff" fill-opacity="1"><g transform="translate(239.543817, 236.577464)"><g><path d="M 3.59375 0 C 3.09375 0 2.664062 -0.171875 2.3125 -0.515625 C 1.957031 -0.867188 1.78125 -1.300781 1.78125 -1.8125 L 1.78125 -19.8125 C 1.78125 -20.332031 1.957031 -20.765625 2.3125 -21.109375 C 2.664062 -21.453125 3.09375 -21.625 3.59375 -21.625 L 14.546875 -21.625 C 15.066406 -21.625 15.5 -21.441406 15.84375 -21.078125 C 16.1875 -20.722656 16.359375 -20.289062 16.359375 -19.78125 L 16.359375 -6.671875 C 16.359375 -6.171875 16.523438 -5.75 16.859375 -5.40625 C 17.203125 -5.0625 17.617188 -4.890625 18.109375 -4.890625 C 18.617188 -4.890625 19.039062 -5.0625 19.375 -5.40625 C 19.71875 -5.75 19.890625 -6.171875 19.890625 -6.671875 L 19.890625 -19.8125 C 19.890625 -20.332031 20.066406 -20.765625 20.421875 -21.109375 C 20.773438 -21.453125 21.203125 -21.625 21.703125 -21.625 L 24 -21.625 C 24.519531 -21.625 24.953125 -21.453125 25.296875 -21.109375 C 25.640625 -20.765625 25.8125 -20.332031 25.8125 -19.8125 L 25.8125 -1.8125 C 25.8125 -1.300781 25.640625 -0.867188 25.296875 -0.515625 C 24.953125 -0.171875 24.519531 0 24 0 L 13.0625 0 C 12.550781 0 12.117188 -0.175781 11.765625 -0.53125 C 11.421875 -0.894531 11.25 -1.332031 11.25 -1.84375 L 11.25 -14.96875 C 11.25 -15.457031 11.078125 -15.875 10.734375 -16.21875 C 10.390625 -16.5625 9.960938 -16.734375 9.453125 -16.734375 C 8.972656 -16.734375 8.5625 -16.5625 8.21875 -16.21875 C 7.875 -15.875 7.703125 -15.457031 7.703125 -14.96875 L 7.703125 -1.8125 C 7.703125 -1.300781 7.53125 -0.867188 7.1875 -0.515625 C 6.84375 -0.171875 6.410156 0 5.890625 0 Z M 3.59375 0 "/></g></g></g><g fill="#f1f8ff" fill-opacity="1"><g transform="translate(267.134742, 236.577464)"><g><path d="M 9.515625 0 C 8.347656 0 7.765625 -0.59375 7.765625 -1.78125 L 7.765625 -14.96875 C 7.765625 -15.457031 7.585938 -15.875 7.234375 -16.21875 C 6.878906 -16.5625 6.453125 -16.734375 5.953125 -16.734375 L 3.5625 -16.734375 C 2.375 -16.734375 1.78125 -17.328125 1.78125 -18.515625 L 1.78125 -19.875 C 1.78125 -21.0625 2.375 -21.65625 3.5625 -21.65625 L 17.875 -21.625 C 19.0625 -21.625 19.65625 -21.03125 19.65625 -19.84375 L 19.65625 -18.515625 C 19.65625 -17.328125 19.0625 -16.734375 17.875 -16.734375 L 15.46875 -16.734375 C 14.976562 -16.734375 14.554688 -16.5625 14.203125 -16.21875 C 13.847656 -15.875 13.671875 -15.457031 13.671875 -14.96875 L 13.671875 -1.75 C 13.671875 -0.582031 13.078125 0 11.890625 0 Z M 9.515625 0 "/></g></g></g><g fill="#f1f8ff" fill-opacity="1"><g transform="translate(288.564329, 236.577464)"><g><path d="M 3.59375 0 C 3.09375 0 2.664062 -0.171875 2.3125 -0.515625 C 1.957031 -0.867188 1.78125 -1.300781 1.78125 -1.8125 L 1.78125 -19.8125 C 1.78125 -20.332031 1.957031 -20.765625 2.3125 -21.109375 C 2.664062 -21.453125 3.09375 -21.625 3.59375 -21.625 L 15.703125 -21.625 C 16.765625 -21.625 17.707031 -21.382812 18.53125 -20.90625 C 19.363281 -20.425781 20.019531 -19.769531 20.5 -18.9375 C 20.976562 -18.113281 21.21875 -17.171875 21.21875 -16.109375 L 21.21875 -14.46875 C 21.21875 -13.925781 21.039062 -13.476562 20.6875 -13.125 C 20.34375 -12.769531 19.898438 -12.59375 19.359375 -12.59375 L 19.296875 -12.59375 C 18.816406 -12.59375 18.40625 -12.421875 18.0625 -12.078125 C 17.71875 -11.734375 17.546875 -11.3125 17.546875 -10.8125 C 17.546875 -10.3125 17.71875 -9.890625 18.0625 -9.546875 C 18.40625 -9.203125 18.816406 -9.03125 19.296875 -9.03125 L 19.546875 -9.03125 C 20.023438 -9.03125 20.421875 -8.875 20.734375 -8.5625 C 21.054688 -8.257812 21.21875 -7.863281 21.21875 -7.375 L 21.21875 -1.8125 C 21.21875 -1.300781 21.046875 -0.867188 20.703125 -0.515625 C 20.359375 -0.171875 19.925781 0 19.40625 0 L 17.109375 0 C 16.609375 0 16.179688 -0.171875 15.828125 -0.515625 C 15.472656 -0.867188 15.296875 -1.300781 15.296875 -1.8125 L 15.296875 -6.703125 C 15.296875 -7.191406 15.125 -7.601562 14.78125 -7.9375 C 14.4375 -8.28125 14.015625 -8.453125 13.515625 -8.453125 L 9.453125 -8.453125 C 8.972656 -8.453125 8.5625 -8.28125 8.21875 -7.9375 C 7.875 -7.601562 7.703125 -7.191406 7.703125 -6.703125 L 7.703125 -1.8125 C 7.703125 -1.300781 7.53125 -0.867188 7.1875 -0.515625 C 6.84375 -0.171875 6.410156 0 5.890625 0 Z M 9.453125 -13.1875 L 13.515625 -13.1875 C 14.015625 -13.1875 14.4375 -13.359375 14.78125 -13.703125 C 15.125 -14.046875 15.296875 -14.460938 15.296875 -14.953125 C 15.296875 -15.453125 15.125 -15.875 14.78125 -16.21875 C 14.4375 -16.5625 14.015625 -16.734375 13.515625 -16.734375 L 9.453125 -16.734375 C 8.972656 -16.734375 8.5625 -16.5625 8.21875 -16.21875 C 7.875 -15.875 7.703125 -15.453125 7.703125 -14.953125 C 7.703125 -14.460938 7.875 -14.046875 8.21875 -13.703125 C 8.5625 -13.359375 8.972656 -13.1875 9.453125 -13.1875 Z M 9.453125 -13.1875 "/></g></g></g><g fill="#f1f8ff" fill-opacity="1"><g transform="translate(311.561276, 236.577464)"><g><path d="M 8.40625 0 C 7.125 0 5.984375 -0.28125 4.984375 -0.84375 C 3.984375 -1.414062 3.195312 -2.203125 2.625 -3.203125 C 2.0625 -4.203125 1.78125 -5.34375 1.78125 -6.625 L 1.78125 -15 C 1.78125 -16.28125 2.0625 -17.421875 2.625 -18.421875 C 3.195312 -19.421875 3.984375 -20.203125 4.984375 -20.765625 C 5.984375 -21.335938 7.125 -21.625 8.40625 -21.625 L 10.546875 -21.625 C 11.828125 -21.625 12.96875 -21.335938 13.96875 -20.765625 C 14.96875 -20.203125 15.75 -19.421875 16.3125 -18.421875 C 16.882812 -17.421875 17.171875 -16.28125 17.171875 -15 L 17.171875 -6.625 C 17.171875 -5.34375 16.882812 -4.203125 16.3125 -3.203125 C 15.75 -2.203125 14.96875 -1.414062 13.96875 -0.84375 C 12.96875 -0.28125 11.828125 0 10.546875 0 Z M 9.453125 -4.890625 C 9.960938 -4.890625 10.390625 -5.0625 10.734375 -5.40625 C 11.078125 -5.75 11.25 -6.171875 11.25 -6.671875 L 11.25 -14.953125 C 11.25 -15.453125 11.078125 -15.875 10.734375 -16.21875 C 10.390625 -16.5625 9.960938 -16.734375 9.453125 -16.734375 C 8.972656 -16.734375 8.5625 -16.5625 8.21875 -16.21875 C 7.875 -15.875 7.703125 -15.453125 7.703125 -14.953125 L 7.703125 -6.671875 C 7.703125 -6.171875 7.875 -5.75 8.21875 -5.40625 C 8.5625 -5.0625 8.972656 -4.890625 9.453125 -4.890625 Z M 9.453125 -4.890625 "/></g></g></g><g fill="#f1f8ff" fill-opacity="1"><g transform="translate(330.504702, 236.577464)"><g><path d="M 3.59375 0 C 3.09375 0 2.664062 -0.171875 2.3125 -0.515625 C 1.957031 -0.867188 1.78125 -1.300781 1.78125 -1.8125 L 1.78125 -19.8125 C 1.78125 -20.332031 1.957031 -20.765625 2.3125 -21.109375 C 2.664062 -21.453125 3.09375 -21.625 3.59375 -21.625 L 5.890625 -21.625 C 6.410156 -21.625 6.84375 -21.453125 7.1875 -21.109375 C 7.53125 -20.765625 7.703125 -20.332031 7.703125 -19.8125 L 7.703125 -6.671875 C 7.703125 -6.191406 7.867188 -5.773438 8.203125 -5.421875 C 8.535156 -5.066406 8.953125 -4.890625 9.453125 -4.890625 L 14 -4.890625 C 14.519531 -4.890625 14.953125 -4.71875 15.296875 -4.375 C 15.640625 -4.03125 15.8125 -3.597656 15.8125 -3.078125 L 15.8125 -1.8125 C 15.8125 -1.300781 15.640625 -0.867188 15.296875 -0.515625 C 14.953125 -0.171875 14.519531 0 14 0 Z M 3.59375 0 "/></g></g></g><g clip-path="url(#32a41aa1c7)"><path fill="#004aad" d="M 98.230469 256.257812 L 98.238281 254.417969 L 100.957031 254.417969 L 100.957031 254.082031 L 98.238281 254.082031 L 98.265625 246.164062 L 100.957031 246.164062 L 100.957031 245.832031 L 98.265625 245.832031 L 98.253906 237.914062 L 100.957031 237.914062 L 100.957031 237.582031 L 98.253906 237.582031 L 98.242188 229.664062 L 100.957031 229.664062 L 100.957031 229.332031 L 98.238281 229.332031 L 98.234375 225.679688 C 118.980469 225.398438 135.789062 208.578125 135.976562 187.855469 L 139.46875 187.859375 L 139.46875 190.574219 L 139.804688 190.574219 L 139.804688 187.863281 L 147.738281 187.875 L 147.738281 190.574219 L 148.070312 190.574219 L 148.070312 187.875 L 156.007812 187.890625 L 156.007812 190.574219 L 156.339844 190.574219 L 156.339844 187.890625 L 164.277344 187.859375 L 164.277344 190.574219 L 164.609375 190.574219 L 164.609375 187.859375 L 166.628906 187.855469 C 166.433594 225.4375 135.878906 255.976562 98.230469 256.257812 Z M 28.796875 187.855469 L 30.8125 187.859375 L 30.8125 190.574219 L 31.148438 190.574219 L 31.148438 187.859375 L 39.082031 187.890625 L 39.082031 190.574219 L 39.414062 190.574219 L 39.414062 187.890625 L 47.351562 187.875 L 47.351562 190.574219 L 47.683594 190.574219 L 47.683594 187.875 L 55.621094 187.863281 L 55.621094 190.574219 L 55.953125 190.574219 L 55.953125 187.859375 L 59.445312 187.855469 C 59.636719 208.6875 76.625 225.585938 97.523438 225.6875 L 97.515625 229.332031 L 94.800781 229.332031 L 94.800781 229.664062 L 97.515625 229.664062 L 97.503906 237.582031 L 94.800781 237.582031 L 94.800781 237.914062 L 97.503906 237.914062 L 97.488281 245.832031 L 94.800781 245.832031 L 94.800781 246.164062 L 97.488281 246.164062 L 97.515625 254.082031 L 94.800781 254.082031 L 94.800781 254.417969 L 97.515625 254.417969 L 97.523438 256.261719 C 59.722656 256.164062 28.988281 225.546875 28.796875 187.855469 Z M 97.523438 118.738281 L 97.515625 120.585938 L 94.800781 120.585938 L 94.800781 120.917969 L 97.515625 120.917969 L 97.488281 128.832031 L 94.800781 128.832031 L 94.800781 129.167969 L 97.488281 129.167969 L 97.503906 137.085938 L 94.800781 137.085938 L 94.800781 137.417969 L 97.503906 137.417969 L 97.515625 145.335938 L 94.800781 145.335938 L 94.800781 145.667969 L 97.515625 145.667969 L 97.523438 149.3125 C 76.625 149.414062 59.636719 166.3125 59.445312 187.144531 L 55.953125 187.140625 L 55.953125 184.429688 L 55.621094 184.429688 L 55.621094 187.136719 L 47.683594 187.125 L 47.683594 184.429688 L 47.351562 184.429688 L 47.351562 187.121094 L 39.414062 187.109375 L 39.414062 184.429688 L 39.082031 184.429688 L 39.082031 187.109375 L 31.148438 187.140625 L 31.148438 184.429688 L 30.8125 184.429688 L 30.8125 187.140625 L 28.796875 187.144531 C 28.988281 149.453125 59.722656 118.835938 97.523438 118.738281 Z M 131.203125 184.429688 L 131.203125 187.152344 L 123.265625 187.164062 L 123.265625 184.429688 L 122.929688 184.429688 L 122.929688 187.167969 C 120.285156 187.183594 117.640625 187.203125 114.996094 187.246094 L 114.996094 184.429688 L 114.660156 184.429688 L 114.660156 187.253906 C 111.960938 187.300781 109.257812 187.375 106.558594 187.5 C 109.257812 187.625 111.960938 187.699219 114.660156 187.746094 L 114.660156 190.574219 L 114.996094 190.574219 L 114.996094 187.753906 C 117.640625 187.796875 120.285156 187.816406 122.929688 187.832031 L 122.929688 190.574219 L 123.265625 190.574219 L 123.265625 187.835938 L 131.203125 187.847656 L 131.203125 190.574219 L 131.535156 190.574219 L 131.535156 187.847656 L 135.3125 187.855469 C 135.121094 208.210938 118.613281 224.734375 98.230469 225.015625 L 98.226562 221.414062 L 100.957031 221.414062 L 100.957031 221.082031 L 98.226562 221.082031 L 98.214844 213.160156 L 100.957031 213.160156 L 100.957031 212.828125 L 98.210938 212.828125 C 98.195312 210.191406 98.175781 207.550781 98.132812 204.910156 L 100.957031 204.910156 L 100.957031 204.578125 L 98.125 204.578125 C 98.078125 201.882812 98.003906 199.1875 97.878906 196.496094 C 97.75 199.1875 97.679688 201.882812 97.632812 204.578125 L 94.800781 204.578125 L 94.800781 204.910156 L 97.625 204.910156 C 97.582031 207.550781 97.5625 210.191406 97.546875 212.828125 L 94.800781 212.828125 L 94.800781 213.160156 L 97.542969 213.160156 L 97.527344 221.082031 L 94.800781 221.082031 L 94.800781 221.414062 L 97.527344 221.414062 L 97.523438 225.019531 C 76.992188 224.921875 60.304688 208.320312 60.109375 187.855469 L 63.890625 187.847656 L 63.890625 190.574219 L 64.222656 190.574219 L 64.222656 187.847656 L 72.15625 187.835938 L 72.15625 190.574219 L 72.492188 190.574219 L 72.492188 187.832031 C 75.136719 187.816406 77.78125 187.796875 80.429688 187.753906 L 80.429688 190.574219 L 80.761719 190.574219 L 80.761719 187.746094 C 83.460938 187.699219 86.164062 187.625 88.863281 187.5 C 86.164062 187.375 83.460938 187.300781 80.761719 187.253906 L 80.761719 184.429688 L 80.429688 184.429688 L 80.429688 187.246094 C 77.78125 187.203125 75.136719 187.183594 72.492188 187.167969 L 72.492188 184.429688 L 72.15625 184.429688 L 72.15625 187.164062 L 64.222656 187.152344 L 64.222656 184.429688 L 63.890625 184.429688 L 63.890625 187.152344 L 60.109375 187.144531 C 60.304688 166.679688 76.992188 150.078125 97.523438 149.980469 L 97.527344 153.589844 L 94.800781 153.589844 L 94.800781 153.921875 L 97.527344 153.921875 L 97.542969 161.839844 L 94.800781 161.839844 L 94.800781 162.171875 L 97.546875 162.171875 C 97.5625 164.808594 97.582031 167.449219 97.625 170.089844 L 94.800781 170.089844 L 94.800781 170.421875 L 97.632812 170.421875 C 97.679688 173.117188 97.75 175.8125 97.878906 178.503906 C 98.003906 175.8125 98.078125 173.117188 98.125 170.421875 L 100.957031 170.421875 L 100.957031 170.089844 L 98.132812 170.089844 C 98.175781 167.449219 98.195312 164.808594 98.210938 162.171875 L 100.957031 162.171875 L 100.957031 161.839844 L 98.214844 161.839844 L 98.226562 153.921875 L 100.957031 153.921875 L 100.957031 153.589844 L 98.226562 153.589844 L 98.230469 149.984375 C 118.613281 150.265625 135.121094 166.789062 135.3125 187.144531 L 131.535156 187.152344 L 131.535156 184.429688 Z M 166.628906 187.144531 L 164.609375 187.140625 L 164.609375 184.429688 L 164.277344 184.429688 L 164.277344 187.140625 L 156.339844 187.109375 L 156.339844 184.429688 L 156.007812 184.429688 L 156.007812 187.109375 L 148.070312 187.121094 L 148.070312 184.429688 L 147.738281 184.429688 L 147.738281 187.125 L 139.804688 187.136719 L 139.804688 184.429688 L 139.46875 184.429688 L 139.46875 187.140625 L 135.976562 187.144531 C 135.789062 166.421875 118.980469 149.597656 98.234375 149.320312 L 98.238281 145.667969 L 100.957031 145.667969 L 100.957031 145.335938 L 98.242188 145.335938 L 98.253906 137.417969 L 100.957031 137.417969 L 100.957031 137.085938 L 98.253906 137.085938 L 98.265625 129.167969 L 100.957031 129.167969 L 100.957031 128.832031 L 98.265625 128.832031 L 98.238281 120.917969 L 100.957031 120.917969 L 100.957031 120.585938 L 98.238281 120.585938 L 98.230469 118.742188 C 135.878906 119.023438 166.433594 149.5625 166.628906 187.144531 Z M 172.710938 187.167969 L 168.621094 187.152344 C 168.433594 148.464844 136.976562 117.027344 98.226562 116.75 L 98.210938 112.5 L 97.546875 112.5 L 97.53125 116.738281 C 58.625 116.839844 26.988281 148.355469 26.800781 187.152344 L 22.710938 187.167969 L 22.710938 187.832031 L 26.800781 187.847656 C 26.988281 226.644531 58.625 258.160156 97.53125 258.261719 L 97.546875 262.5 L 98.210938 262.5 L 98.226562 258.25 C 136.976562 257.972656 168.433594 226.535156 168.621094 187.847656 L 172.710938 187.832031 L 172.710938 187.167969 " fill-opacity="1" fill-rule="nonzero"/></g></svg>